<svg id="visual" viewBox="0 0 900 1200" width="900" height="1200" xmlns="http://www.w3.org/2000/svg" xmlns:xlink="http://www.w3.org/1999/xlink" version="1.1"><rect x="0" y="0" width="900" height="1200" fill="#002540"></rect><defs><linearGradient id="grad1_0" x1="0%" y1="0%" x2="100%" y2="100%"><stop offset="30%" stop-color="#002540" stop-opacity="1"></stop><stop offset="70%" stop-color="#002540" stop-opacity="1"></stop></linearGradient></defs><defs><linearGradient id="grad2_0" x1="0%" y1="0%" x2="100%" y2="100%"><stop offset="30%" stop-color="#002540" stop-opacity="1"></stop><stop offset="70%" stop-color="#002540" stop-opacity="1"></stop></linearGradient></defs><g transform="translate(900, 0)"><path d="M0 562.5C-41 521.7 -82 481 -122.4 456.9C-162.8 432.8 -202.7 425.4 -234.5 406.2C-266.3 386.9 -290.2 355.7 -337.3 337.3C-384.4 318.9 -454.6 313.3 -487.1 281.3C-519.6 249.2 -514.4 190.8 -520.6 139.5C-526.9 88.2 -544.7 44.1 -562.5 0L0 0Z" fill="#297EA6"></path></g><g transform="translate(0, 1200)"><path d="M0 -562.5C42.6 -540.5 85.1 -518.5 137.7 -513.9C190.3 -509.2 252.9 -521.9 281.2 -487.1C309.6 -452.4 303.7 -370.1 323.9 -323.9C344 -277.6 390.1 -267.4 415.7 -240C441.3 -212.6 446.5 -168.1 467.5 -125.3C488.6 -82.4 525.5 -41.2 562.5 0L0 0Z" fill="#297EA6"></path></g></svg>